<svg width="182" height="48" viewBox="0 0 91 24" fill="none" xmlns="http://www.w3.org/2000/svg">
    <path d="M11.2954 7.86935C11.7634 8.58036 10.8879 9.92987 9.34401 10.9085C7.80012 11.8872 6.18295 12.0509 5.69698 11.3399C5.21101 10.6289 6.11043 9.28539 7.65433 8.33738C9.19822 7.38936 10.8154 7.18824 11.3014 7.9" fill="white"></path>
    <path d="M91 12.9494C91 17.9034 87.4748 22.1403 82.3871 22.1403C78.6122 22.1403 76.278 19.5983 76.278 16.1412C76.278 11.2112 79.8032 6.94507 84.8909 6.94507C88.9148 6.94507 91 9.75324 91 12.9509M79.9639 16.0492C79.9639 18.0492 81.0398 19.4532 82.8753 19.4532C85.5436 19.4532 87.3245 15.8727 87.3245 12.9793C87.3245 11.484 86.6135 9.62988 84.4678 9.62988C81.617 9.62988 79.9639 13.3315 79.9639 16.0484" fill="white"></path>
    <path d="M50.8766 7.30859L45.5152 17.5267C45.424 16.566 44.0685 7.30859 44.0685 7.30859H40.4215L42.9194 21.5812C42.9167 21.5859 42.9153 21.5912 42.9153 21.5965C42.9153 21.6019 42.9167 21.6072 42.9194 21.6119C43.2558 21.7607 43.6216 21.8313 43.9893 21.8182H45.6124C45.964 21.8141 46.3127 21.7546 46.6457 21.6418L46.6883 21.5565L54.8339 7.30859H50.8766Z" fill="white"></path>
    <path d="M72.7043 0.622314L68.8868 20.1218L68.6012 21.623C68.9905 21.7635 69.4033 21.8275 69.8169 21.8114H71.0326C71.427 21.8124 71.8196 21.7594 72.1996 21.6537L72.4987 20.1218L76.2908 0.622314H72.7043Z" fill="white"></path>
    <path d="M34.4889 6.94434C33.4385 6.91124 32.3966 7.14336 31.4596 7.61927C30.5225 8.09518 29.7205 8.79953 29.1275 9.66728H29.061L29.4012 7.27481H26.2102C26.0278 8.5331 25.8087 10.0523 25.4446 11.7854L25.0372 13.8915C23.1531 16.5539 17.6579 20.426 11.0561 19.7875C8.84381 19.5744 7.95635 19.0092 10.757 17.6843C11.5802 17.2654 12.3815 16.8047 13.1578 16.3042C18.6709 12.7154 21.8013 7.83704 20.1296 5.3997C19.0776 3.86179 16.3487 3.66142 13.1017 4.64607C13.5396 4.61398 13.9789 4.68778 14.3823 4.86125C14.7857 5.03471 15.1414 5.30274 15.4194 5.64269C16.5132 7.32041 14.4527 10.5024 10.8303 12.7304C7.20796 14.9584 3.37999 15.4294 2.32207 13.7517C2.14498 13.4402 2.0434 13.0916 2.02548 12.7337C2.00756 12.3758 2.07381 12.0188 2.21889 11.6912C0.99352 12.9377 0.218272 14.5568 0.0155717 16.2929C-0.227414 18.6854 2.30114 24.4079 12.7017 23.2162C17.1595 22.6542 21.283 20.5589 24.365 17.2896L23.7161 20.6084L23.5217 21.6237C23.9117 21.7613 24.3239 21.8252 24.7373 21.8121H25.953C26.3481 21.8157 26.7414 21.7602 27.1201 21.6476L27.3145 20.6084L28.3784 15.0952C29.0244 11.6912 31.1036 9.77943 32.7327 9.77943C34.1428 9.77943 34.6018 10.6422 34.6018 11.8728C34.5875 12.4542 34.5265 13.0335 34.4194 13.6052L33.1364 20.1224L33.0392 20.6084L32.8374 21.5444V21.611C33.2239 21.763 33.6382 21.8313 34.0531 21.8113H35.2672C35.6668 21.817 36.0647 21.7595 36.4463 21.6409V21.5377L36.6227 20.6076L36.7139 20.1217L38.0208 13.3323C38.1871 12.5502 38.2827 11.7547 38.3064 10.9555C38.3064 8.20787 36.6534 6.94958 34.5016 6.94958" fill="white"></path>
    <path d="M67.4827 10.7252C67.4827 8.29381 65.6135 6.63403 62.6685 6.63403C57.5202 6.63403 54.2074 11.4115 54.2074 15.7942C54.2074 19.3441 56.2014 21.824 60.3381 21.824C62.0643 21.8285 63.7723 21.4719 65.3526 20.7773L65.5021 20.7026C65.5362 20.6404 65.5647 20.5753 65.5874 20.5082C65.6755 20.1092 65.696 19.6982 65.6479 19.2925C65.5933 18.6846 65.4289 18.2047 65.2741 18.1501L65.1769 18.1927C63.9343 18.7939 62.57 19.1009 61.1897 19.0899C60.5946 19.1438 59.9962 19.0328 59.4601 18.769C58.924 18.5052 58.4709 18.0989 58.1505 17.5946C57.8313 16.9593 57.6925 16.2487 57.749 15.54C63.5111 15.6552 67.529 14.4642 67.529 10.7379M62.2528 9.24258C63.3893 9.24258 64.1556 9.8078 64.1556 10.7379C64.1556 12.373 62.113 12.9016 58.8735 12.9442H58.7987C58.1909 12.9442 58.1909 12.7012 58.1909 12.604C58.7195 10.9442 60.1422 9.23959 62.2334 9.23959" fill="white"></path>
</svg>