<?xml version="1.0" encoding="utf-8"?>
<!-- Generator: Adobe Illustrator 26.2.1, SVG Export Plug-In . SVG Version: 6.00 Build 0)  -->
<svg version="1.1" id="Warstwa_1" xmlns="http://www.w3.org/2000/svg" xmlns:xlink="http://www.w3.org/1999/xlink" x="0px" y="0px"
	 viewBox="0 0 1958 712" style="enable-background:new 0 0 1958 712;" xml:space="preserve">
<style type="text/css">
	.st0{fill:white;}
	.st1{fill-rule:evenodd;clip-rule:evenodd;fill:#003228;}
</style>
<g>
	<g>
		<g>
			<path class="st0" d="M1600.9,522.8c-12.5,0-21.9-10.3-21.9-28.8c0-18.5,9.5-28.8,21.9-28.8s21.9,10.3,21.9,28.8
				C1622.9,512.5,1613.4,522.8,1600.9,522.8 M1600.9,452.9c-22.6,0-38.5,16-38.5,41.1c0,25.1,15.9,41.1,38.5,41.1
				c22.6,0,38.5-16,38.5-41.1C1639.4,468.9,1623.5,452.9,1600.9,452.9 M1508.2,492.9v10.3h15.7c-0.3,13.7-8.5,19.7-18.7,19.7
				c-13.5,0-22.3-10.3-22.3-28.8c0-18.5,9.5-28.8,21.9-28.8c8.1,0,15.1,4.1,17.8,14.6h15.2c-3.1-18.6-17.1-27-33-27
				c-22.6,0-38.5,16-38.5,41.1c0,25.1,15.4,41.1,36.7,41.1c9,0,17.1-2.9,22.2-9.3l1.5,8.1h10.9v-41.1H1508.2z M1403.2,521.7v-23
				h36.2v-12.3h-36.2v-20h39.7V454h-55.1v80h56.2v-12.3H1403.2z M1343.1,534h15.4v-80h-15.4V534z M1322.8,534l-34.1-45l31.8-35
				h-18.4l-36.5,40v-40h-15.4v80h15.4v-19.7l12.5-13.7l26.1,33.4H1322.8z M1180.9,474.8c0-5.9,5.5-10.1,13.6-10.1
				c7.9,0,12.9,3.9,14.4,11.2h15c-1.7-14.5-12.5-23.1-29.5-23.1c-16.6,0-29.5,8-29.5,23.5c0,28.5,43.5,19.9,43.5,36.8
				c0,6.2-5.8,9.6-14.6,9.6c-7.8,0-14.9-2.5-16.2-11.9h-15c1.7,16.5,13.7,24.2,31.4,24.2c19.4,0,31-9.4,31-24.3
				C1225,481.8,1180.9,491.3,1180.9,474.8 M1122.1,454v58.9c0,6.5-2.1,9.9-6.6,9.9c-4.6,0-6.6-3.4-6.6-9.6h-14.6
				c0,14.6,8.1,21.9,21.3,21.9c13.1,0,22.1-7.3,22.1-20.5V454H1122.1z M1034.6,521.7v-23h36.2v-12.3h-36.2v-20h39.7V454h-55.1v80
				h56.2v-12.3H1034.6z M974.5,534H990v-80h-15.4V534z M936.9,454l-15,62.9l-16-57.6h-13.5l-16,57.6L862.3,454h-16.8l21.5,80h17.9
				l14.3-51.9l14.3,51.9h17.9l21.5-80H936.9z"/>
			<path class="st0" d="M1907.2,363.8l10.7-30.7l11.3,30.7H1907.2z M1941,396h17l-30.5-80h-18.6l-29.2,80h16.2l6.9-19.9h30.9
				L1941,396z M1853.2,316l-15.1,62.9l-16.2-57.6h-13.6l-16.2,57.6l-14.3-62.9h-17l21.7,80h18.1l14.4-51.9l14.4,51.9h18.1l21.7-80
				H1853.2z M1746.3,316h-67.1v12.3h25.7V396h15.6v-67.7h25.7V316z M1617.3,336.8c0-5.9,5.5-10.1,13.7-10.1c8,0,13,3.9,14.5,11.2
				h15.1c-1.7-14.5-12.6-23.1-29.8-23.1c-16.7,0-29.8,8-29.8,23.5c0,28.5,44,19.9,44,36.8c0,6.2-5.9,9.6-14.8,9.6
				c-7.8,0-15-2.5-16.4-11.9h-15.1c1.7,16.5,13.9,24.2,31.7,24.2c19.6,0,31.3-9.4,31.3-24.3C1661.9,343.8,1617.3,353.3,1617.3,336.8
				 M1528.8,352.8v-24.5h10.9c11.1,0,17.3,3.8,17.3,12.2c0,8.5-6.2,12.2-17.3,12.2H1528.8z M1564.9,370.2c-2.4-4.5-5-7.5-8.2-9.6
				c9.1-3.2,15.9-9.7,15.9-20.5c0-16.9-14-24.1-29.8-24.1h-29.7v80h15.6v-30.9h5.4c8.1,0,11.2,1.6,15.1,8.5L1562,396h17.5
				L1564.9,370.2z M1437.2,363.8l10.7-30.7l11.3,30.7H1437.2z M1471,396h17l-30.5-80h-18.6l-29.2,80h16.2l6.9-19.9h30.9L1471,396z
				 M1352.7,384.1h-13v-56.2h13c13.7,0,24.5,9.6,24.5,28.1S1366.4,384.1,1352.7,384.1 M1353.8,316H1324v80h29.8
				c22.9,0,40.1-14.9,40.1-40S1376.7,316,1353.8,316 M1257.3,384.8c-12.6,0-22.2-10.3-22.2-28.8s9.6-28.8,22.2-28.8
				c12.6,0,22.2,10.3,22.2,28.8S1269.9,384.8,1257.3,384.8 M1257.3,314.9c-22.9,0-38.9,16-38.9,41.1s16,41.1,38.9,41.1
				c22.9,0,38.9-16,38.9-41.1S1280.1,314.9,1257.3,314.9 M1166,354.6h-12v-26.3h12c11.1,0,17.3,4.1,17.3,13.1
				C1183.3,350.5,1177.1,354.6,1166,354.6 M1169.2,316h-30.8v80h15.6v-29h15.2c15.8,0,29.8-7.5,29.8-25.5
				C1199,323.5,1185,316,1169.2,316 M1066.4,336.8c0-5.9,5.5-10.1,13.7-10.1c8,0,13,3.9,14.5,11.2h15.1
				c-1.7-14.5-12.6-23.1-29.8-23.1c-16.7,0-29.8,8-29.8,23.5c0,28.5,44,19.9,44,36.8c0,6.2-5.9,9.6-14.8,9.6
				c-7.8,0-15-2.5-16.4-11.9h-15.1c1.7,16.5,13.9,24.2,31.7,24.2c19.6,0,31.3-9.4,31.3-24.3C1111,343.8,1066.4,353.3,1066.4,336.8
				 M985.8,384.8c-12.6,0-22.2-10.3-22.2-28.8s9.6-28.8,22.2-28.8c12.6,0,22.2,10.3,22.2,28.8S998.3,384.8,985.8,384.8 M985.8,314.9
				c-22.9,0-38.9,16-38.9,41.1s16,41.1,38.9,41.1c22.9,0,38.9-16,38.9-41.1S1008.6,314.9,985.8,314.9 M891.7,354.9v10.3h15.8
				c-0.3,13.7-8.5,19.7-18.9,19.7c-13.6,0-22.5-10.3-22.5-28.8s9.6-28.8,22.2-28.8c8.2,0,15.2,4.1,18,14.6h15.4
				c-3.1-18.6-17.3-27-33.4-27c-22.9,0-38.9,16-38.9,41.1s15.6,41.1,37.1,41.1c9.1,0,17.3-2.9,22.4-9.3l1.5,8.1h11v-41.1H891.7z"/>
			<path class="st0" d="M1908.4,225.8l10.5-30.7l11.1,30.7H1908.4z M1941.4,258h16.6l-29.8-80h-18.2l-28.5,80h15.8l6.8-19.9h30.2
				L1941.4,258z M1846.2,178v52.7l-44.9-52.7h-11.6v80h15.2v-52.7l44.9,52.7h11.6v-80H1846.2z M1753.8,178l-14.8,62.9l-15.8-57.6
				H1710l-15.8,57.6l-14-62.9h-16.6l21.2,80h17.7l14.1-51.9l14.1,51.9h17.7l21.2-80H1753.8z M1610.1,246.8
				c-12.3,0-21.7-10.3-21.7-28.8c0-18.5,9.4-28.8,21.7-28.8c12.3,0,21.7,10.3,21.7,28.8C1631.8,236.5,1622.4,246.8,1610.1,246.8
				 M1610.1,176.9c-22.3,0-38,16-38,41.1c0,25.1,15.7,41.1,38,41.1c22.3,0,38-16,38-41.1C1648.1,192.9,1632.5,176.9,1610.1,176.9
				 M1603.6,170.8h10.8l19-15.8h-16.7L1603.6,170.8z M1516.3,245.7v-20.9l25.4-14.5v-13.5l-25.4,14.5V178h-15.2v41.9l-10.5,6.1v13.5
				l10.5-6.1V258h53.9v-12.3H1516.3z M1441.8,216.9v10.3h15.5c-0.3,13.7-8.3,19.7-18.5,19.7c-13.3,0-22-10.3-22-28.8
				c0-18.5,9.4-28.8,21.7-28.8c8,0,14.9,4.1,17.6,14.6h15c-3-18.6-16.9-27-32.6-27c-22.3,0-38,16-38,41.1
				c0,25.1,15.2,41.1,36.2,41.1c8.9,0,16.9-2.9,21.9-9.3l1.5,8.1h10.7v-41.1H1441.8z M1296.4,225.8l10.5-30.7l11.1,30.7H1296.4z
				 M1329.5,258h16.6l-29.8-80h-18.2l-28.5,80h15.8l6.8-19.9h30.2L1329.5,258z M1217.2,245.7v-20.9l25.4-14.5v-13.5l-25.4,14.5V178
				H1202v41.9l-10.5,6.1v13.5l10.5-6.1V258h53.9v-12.3H1217.2z M1137.5,246.8c-12.3,0-21.7-10.3-21.7-28.8
				c0-18.5,9.4-28.8,21.7-28.8c12.3,0,21.7,10.3,21.7,28.8C1159.1,236.5,1149.8,246.8,1137.5,246.8 M1137.5,176.9
				c-22.3,0-38,16-38,41.1c0,25.1,15.7,41.1,38,41.1c22.3,0,38-16,38-41.1C1175.5,192.9,1159.8,176.9,1137.5,176.9 M1087.5,258
				l-33.6-45l31.4-35h-18.2l-36,40v-40h-15.2v80h15.2v-19.7l12.3-13.7l25.7,33.4H1087.5z M950.9,245.7l42.6-59V178h-61.8v12.3h40.4
				l-42.6,59v8.7h65.2v-12.3H950.9z M867.7,198.8c0-5.9,5.4-10.1,13.4-10.1c7.8,0,12.7,3.9,14.2,11.2h14.8
				c-1.7-14.5-12.3-23.1-29.1-23.1c-16.4,0-29.1,8-29.1,23.5c0,28.5,43,19.9,43,36.8c0,6.2-5.8,9.6-14.4,9.6
				c-7.7,0-14.7-2.5-16-11.9h-14.8c1.7,16.5,13.5,24.2,31,24.2c19.2,0,30.6-9.4,30.6-24.3C911.2,205.8,867.7,215.3,867.7,198.8"/>
		</g>
	</g>
</g>
<g>
	<g>
		<g>
			<path class="st0" d="M37,367.8c-21.8,4.7-38,15.6-36.1,24.4c-4.7-21.8,9.3-43.3,31.1-47.9c21.8-4.7,38-15.6,36.1-24.4
				C72.8,341.6,58.9,363.1,37,367.8"/>
		</g>
		<g>
			<path class="st0" d="M32,367.8c21.8,4.7,38,15.6,36.1,24.4c4.7-21.8-9.3-43.3-31.1-47.9c-21.8-4.7-38-15.6-36.1-24.4
				C-3.8,341.6,10.1,363.1,32,367.8"/>
		</g>
		<g>
			<path class="st0" d="M675,367.8c21.8,4.7,38,15.6,36.1,24.4c4.7-21.8-9.3-43.3-31.1-47.9c-21.8-4.7-38-15.6-36.1-24.4
				C639.2,341.6,653.1,363.1,675,367.8"/>
		</g>
		<g>
			<path class="st0" d="M680,367.8c-21.8,4.7-38,15.6-36.1,24.4c-4.7-21.8,9.3-43.3,31.1-47.9c21.8-4.7,38-15.6,36.1-24.4
				C715.8,341.6,701.9,363.1,680,367.8"/>
		</g>
		<g>
			<path class="st0" d="M104.1,536.6c15.6,13.1,23.9,28.8,18.7,35.1c13.1-15.6,11.1-38.8-4.5-51.9c-15.6-13.1-23.9-28.8-18.7-35.1
				C86.5,500.2,88.5,523.5,104.1,536.6"/>
		</g>
		<g>
			<path class="st0" d="M607.9,536.6c-15.6,13.1-23.9,28.8-18.7,35.1c-13.1-15.6-11.1-38.8,4.5-51.9c15.6-13.1,23.9-28.8,18.7-35.1
				C625.5,500.2,623.5,523.5,607.9,536.6"/>
		</g>
		<g>
			<path class="st0" d="M164.8,615.1c-17.5-8.5-37.9-13.3-57.3-11.9c16.1-10.9,31.1-23.9,39.6-41.3C148.5,581.2,154,599,164.8,615.1
				"/>
			<g>
				<path class="st0" d="M173.4,621.3c-14.1,15.3-39.4,14.6-54.7,0.5C132.8,606.5,159.6,606.5,173.4,621.3"/>
				<path class="st0" d="M173.4,621.3c10.8-16,8.2-37.7-7.8-48.6C154.8,588.7,157.2,619.6,173.4,621.3"/>
			</g>
		</g>
		<g>
			<path class="st0" d="M66.8,498.1c-19.3,6-41.7-7.1-47.7-26.4C38.4,465.7,60.8,478.7,66.8,498.1"/>
			<path class="st0" d="M66.8,498.1c17.4-8.4,24.5-29.2,16.2-46.7C65.5,459.8,54.5,490.5,66.8,498.1"/>
		</g>
		<g>
			<path class="st0" d="M71.4,403.2c-1.1,14.6-14.1,25.1-28.7,23.9C43.9,412.5,56.8,402,71.4,403.2"/>
			<path class="st0" d="M43.4,426.8c-1.2,15.7-14.5,26.7-30.2,25.5C14.4,436.5,27.7,425.5,43.4,426.8"/>
			<path class="st0" d="M79.1,438.1c-13,6.7-29,1.6-35.7-11.3C56.5,420.1,72.4,425.2,79.1,438.1"/>
			<path class="st0" d="M43.4,426.7c-14,7.2-31.2,1.8-38.4-12.2C19,407.3,36.2,412.7,43.4,426.7"/>
			<path class="st0" d="M35.6,388.2c11.5,8.1,15.8,25.3,7.6,38.1C30.3,418.2,27.3,401.1,35.6,388.2"/>
			<path class="st0" d="M43.1,426.4c12.8,8.2,16.4,24.7,9.2,37c0.1-0.1,0.1,0,0,0C40.3,458.7,35,439.1,43.1,426.4"/>
		</g>
		<g>
			<path class="st0" d="M48.6,260.5c-20.4-14.5-24.8-42.6-10.3-63C58.6,212,60.3,241.5,48.6,260.5"/>
			<path class="st0" d="M48.5,260.5c24.9,2.6,47.7-15.1,50.3-40C73.9,217.9,51.1,235.6,48.5,260.5"/>
		</g>
		<g>
			<path class="st0" d="M76.2,195.6c-16.5-18.8-14.3-47.2,4.5-63.7C97.2,150.8,92,179.8,76.2,195.6"/>
			<path class="st0" d="M76.1,195.5c23.6,8.3,49.9-3.7,58.1-27.3C110.7,160,84.4,171.9,76.1,195.5"/>
		</g>
		<g>
			<path class="st0" d="M116.6,140.7c-12.6-21.6-5-49.1,16.6-61.6C145.7,100.8,135,128.3,116.6,140.7"/>
			<path class="st0" d="M116.5,140.7c21.6,12.6,49.7,5.9,62.3-15.7C157.2,112.4,129.1,119.1,116.5,140.7"/>
		</g>
		<path class="st0" d="M19.4,256C7.2,268,7.6,287.1,19,300c8.1,9.1,17.5,14,16.7,23.2l1.9-10.3c1.2-7.6,3-17.1-5.4-25.9
			C20.5,274.5,13.3,262,19.4,256"/>
		<path class="st0" d="M75.3,270.7c4.9,15-2.8,31.2-16.8,36.9c-9,3.6-21.4,6.2-22.7,15.7c0,0,0-1.6,0.3-5c1.7-18.2,3.4-23,15.7-27.9
			C67.2,284.2,75.2,281,75.3,270.7"/>
		<path class="st0" d="M166,95.8c5.5-23.6,29.9-37.3,53.5-31.8C214,87.6,189.5,101.3,166,95.8"/>
		<path class="st0" d="M35.6,321.2c0,0,0.2-2.8,0.6-4.4c0.8-2.9,3.4-7.5,4-11.3c13.6-85.4,61.3-161.8,133-211.9l-2.9-4.1
			C97.5,140.4,49,218,35.3,304.8c-0.6,3.8-1.8,7.4,0.1,13C35.9,319.4,35.6,321.2,35.6,321.2L35.6,321.2z"/>
		<circle class="st0" cx="94.5" cy="569.9" r="18.1"/>
		<path class="st0" d="M38,515.6c20.8-7.9,44.1,2.7,51.9,23.5C69.1,546.9,45.9,536.4,38,515.6"/>
		<g>
			<path class="st0" d="M547.2,615.1c17.5-8.5,37.9-13.3,57.3-11.9c-16.1-10.9-31.1-23.9-39.6-41.3C563.5,581.2,558,599,547.2,615.1
				"/>
			<g>
				<path class="st0" d="M538.6,621.3c14.1,15.3,39.4,14.6,54.7,0.5C579.2,606.5,552.4,606.5,538.6,621.3"/>
				<path class="st0" d="M538.6,621.3c-10.8-16-8.2-37.7,7.8-48.6C557.2,588.7,554.8,619.6,538.6,621.3"/>
			</g>
		</g>
		<g>
			<path class="st0" d="M645.2,498.1c19.3,6,41.7-7.1,47.7-26.4C673.6,465.7,651.2,478.7,645.2,498.1"/>
			<path class="st0" d="M645.2,498.1c-17.4-8.4-24.5-29.2-16.2-46.7C646.5,459.8,657.5,490.5,645.2,498.1"/>
		</g>
		<g>
			<path class="st0" d="M640.6,403.2c1.1,14.6,14.1,25.1,28.7,23.9C668.1,412.5,655.2,402,640.6,403.2"/>
			<path class="st0" d="M668.6,426.8c1.2,15.7,14.5,26.7,30.2,25.5C697.6,436.5,684.3,425.5,668.6,426.8"/>
			<path class="st0" d="M632.9,438.1c13,6.7,29,1.6,35.7-11.3C655.5,420.1,639.6,425.2,632.9,438.1"/>
			<path class="st0" d="M668.6,426.7c14,7.2,31.2,1.8,38.4-12.2C693,407.3,675.8,412.7,668.6,426.7"/>
			<path class="st0" d="M676.4,388.2c-11.5,8.1-15.8,25.3-7.6,38.1C681.7,418.2,684.7,401.1,676.4,388.2"/>
			<path class="st0" d="M668.9,426.4c-12.8,8.2-16.4,24.7-9.2,37c-0.1-0.1-0.1,0,0,0C671.7,458.7,677,439.1,668.9,426.4"/>
		</g>
		<g>
			<path class="st0" d="M663.4,260.5c20.4-14.5,24.8-42.6,10.3-63C653.4,212,651.7,241.5,663.4,260.5"/>
			<path class="st0" d="M663.5,260.5c-24.9,2.6-47.7-15.1-50.3-40C638.1,217.9,660.9,235.6,663.5,260.5"/>
		</g>
		<g>
			<path class="st0" d="M635.8,195.6c16.5-18.8,14.3-47.2-4.5-63.7C614.8,150.8,620,179.8,635.8,195.6"/>
			<path class="st0" d="M635.9,195.5c-23.6,8.3-49.9-3.7-58.1-27.3C601.3,160,627.6,171.9,635.9,195.5"/>
		</g>
		<g>
			<path class="st0" d="M595.4,140.7c12.6-21.6,5-49.1-16.6-61.6C566.3,100.8,577,128.3,595.4,140.7"/>
			<path class="st0" d="M595.5,140.7c-21.6,12.6-49.7,5.9-62.3-15.7C554.8,112.4,582.9,119.1,595.5,140.7"/>
		</g>
		<path class="st0" d="M692.6,256c12.2,12,11.8,31.2,0.4,44c-8.1,9.1-17.5,14-16.7,23.2l-1.9-10.3c-1.2-7.6-3-17.1,5.4-25.9
			C691.5,274.5,698.7,262,692.6,256"/>
		<path class="st0" d="M636.7,270.7c-4.9,15,2.8,31.2,16.8,36.9c9,3.6,21.4,6.2,22.7,15.7c0,0,0-1.6-0.3-5
			c-1.7-18.2-3.4-23-15.7-27.9C644.8,284.2,636.8,281,636.7,270.7"/>
		<path class="st0" d="M546,95.8c-5.5-23.6-29.9-37.3-53.5-31.8C498,87.6,522.5,101.3,546,95.8"/>
		<path class="st0" d="M676.4,321.2c0,0-0.2-2.8-0.6-4.4c-0.8-2.9-3.4-7.5-4-11.3c-13.6-85.4-61.3-161.8-133-211.9l2.9-4.1
			C614.5,140.4,663,218,676.7,304.8c0.6,3.8,1.8,7.4-0.1,13C676.1,319.4,676.4,321.2,676.4,321.2L676.4,321.2z"/>
		<circle class="st0" cx="617.5" cy="569.9" r="18.1"/>
		<path class="st0" d="M674,515.6c-20.8-7.9-44.1,2.7-51.9,23.5C642.9,546.9,666.1,536.4,674,515.6"/>
	</g>
	<path class="st0" d="M378.8,141.2c-7.3-7.3-7.3-19.1,0-26.4c-9.9,2.7-20.2-3.2-22.8-13.2c-2.7,9.9-12.9,15.8-22.8,13.2
		c7.3,7.3,7.3,19.1,0,26.4c9.9-2.7,20.2,3.2,22.8,13.2C358.7,144.4,368.9,138.5,378.8,141.2z"/>
	<path class="st0" d="M606.8,369.2c-7.3-7.3-7.3-19.1,0-26.4c-9.9,2.7-20.2-3.2-22.8-13.2c-2.7,9.9-12.9,15.8-22.8,13.2
		c7.3,7.3,7.3,19.1,0,26.4c9.9-2.7,20.2,3.2,22.8,13.2C586.7,372.4,596.9,366.5,606.8,369.2z"/>
	<path class="st0" d="M150.8,369.2c-7.3-7.3-7.3-19.1,0-26.4c-9.9,2.7-20.2-3.2-22.8-13.2c-2.7,9.9-12.9,15.8-22.8,13.2
		c7.3,7.3,7.3,19.1,0,26.4c9.9-2.7,20.2,3.2,22.8,13.2C130.7,372.4,140.9,366.5,150.8,369.2z"/>
	<path class="st0" d="M238.7,525.1"/>
	<g>
		<path class="st0" d="M342,469.6c0,0-36.7-2.7-34.1,49.3c0,0-38.6,5.3-43.9,11.5c-8.1,8.9-15.4-7.7-6.6-13
			c9.1-5.4,24.8-10.7,31.4-12.9c-6.6-12.1-21.1-32.3-12.2-52.9c11.1-25.5,46.5-18.3,60-4.4L342,469.6z"/>
		<path class="st0" d="M370,469.9c0,0,36.7-2.7,34.1,49.3c0,0,38.6,5.3,43.9,11.5c8.1,8.9,15.4-7.7,6.6-13
			c-9.1-5.4-24.8-10.7-31.4-12.9c6.6-12.1,21.1-32.3,12.2-52.9c-11.1-25.5-46.5-18.3-60-4.4L370,469.9z"/>
		<path class="st0" d="M324.9,353.2c-11.7-22.2-31-28.9-31-28.9s19.8-16.2,10.8-37.8c-18.3-43.7-72-56.2-94.7-121.7
			c-14.7,18.6-7,38.1,6.7,58.3c-9-6.4-18.4-9.6-28.3-8.3c-1,15,8.4,22,13.9,32.1c-8.6-2.1-17.1-4.1-25.8,4.7
			c1,6.5,8.3,19.1,19.6,23.7c-6.6,0.1-13.4,2.4-20.5,11.2c6.2,8.2,13,14.1,21,16.1c-5.1,2.7-10.3,4-14.9,14.1
			c4.8,6.6,11.2,10.1,19.2,12c-3.2,4.2-7.4,6.2-7.8,17.4c11.4,7.4,17.7,5.3,23.2,5.3c-2.5,6.3-3.3,13.7-0.6,23.6
			c7.4,0,15.5,1.3,20.8-2.4c-2.8,6.7,0.7,12.6,2.6,18.7c8.3,0.4,15.4,0.1,19.7-4.4c-1.5,5.7,2.9,12.2,7.2,18.2
			c7.3-1.3,15.4-1.6,18.7-7.7c1.3,6.3,7.7,9.9,13.9,13.6c7-1.8,13.5-5.3,15.4-10.7c2.4,5.3,7.4,9.7,15.8,12.9
			c3.5,21.4,8.4,46.6,11,61.2c1,32.5-13.3,77.4-29.4,91.1c0,0,11.5,18,44.6,18.3l0.1,0l0.1,0c33.1-0.4,44.6-18.3,44.6-18.3
			c-16.1-13.7-30.3-58.7-29.4-91.1c2.5-14.6,7.5-39.8,11-61.2c8.4-3.2,13.4-7.6,15.8-12.9c1.9,5.4,8.4,9,15.4,10.7
			c6.2-3.7,12.6-7.4,13.9-13.6c3.3,6.1,11.4,6.5,18.7,7.7c4.3-6.1,8.7-12.5,7.2-18.2c4.2,4.5,11.4,4.9,19.7,4.4
			c1.9-6.1,5.4-11.9,2.6-18.7c5.3,3.7,13.4,2.4,20.8,2.4c2.7-9.9,1.9-17.4-0.6-23.6c5.5-0.1,11.8,2,23.2-5.3
			c-0.4-11.2-4.5-13.2-7.8-17.4c8-1.9,14.4-5.4,19.2-12c-4.6-10.1-9.8-11.4-14.9-14.1c8-2,14.8-7.9,21-16.1
			c-7.1-8.8-13.8-11.1-20.5-11.2c11.2-4.6,18.6-17.3,19.6-23.7c-8.7-8.8-17.3-6.8-25.8-4.7c5.4-10.1,14.9-17.2,13.9-32.1
			c-9.9-1.3-19.3,1.9-28.3,8.3c13.7-20.1,21.3-39.7,6.7-58.3c-22.7,65.5-76.5,77.9-94.7,121.7c-9,21.7,10.8,37.8,10.8,37.8
			s-19.4,6.7-31,28.9c0-21-9.7-52-11-62.6c-0.7-5.7-0.2-12.6,0.8-19.1c3.3-20.7,17.9-33,18.4-33.4c-0.3,0.2-5.3,2.8-14.1,0.8
			c-0.9-0.2-1.8-0.5-2.7-0.9c-6.2-2.5-12.6-8-24.2-6.4c-5,0.7-9,3.1-11.6,6.4c-0.1,0.1-0.1,0.1-0.2,0.2c-4.3-2.9-8.8-3.7-13.2-2.9
			c-7.3,1.3-10.9,6.8-10.9,11.8c0,0.7,0,0.7,0,0.7c10.8-1,17.8,1.3,22.8,7.3c-5.8-2.1-12.2-3.3-21.6-1.2c-7.6,1.7-15-2.1-15-2.1
			s2.5,9.2,13.8,8.6c13.1-0.6,19.7,2.6,23.4,6.6c-7.5-1.7-15.6-3-18.8,3c7.6,0.3,21.5,9.4,20,20.3
			C341.6,301.2,324.9,334.7,324.9,353.2"/>
		<path class="st0" d="M226.2,523.4c-11.1,5-13.2,12.2-9.6,20l0,0c3.3-9.9,13-13.2,19.5-13.8c-11.1,6.8-11.1,14.9-7.3,21.3l0,0
			c11.1-17.5,34.1-21.3,41.3-12.2l-0.1,0.1c1.9-3.6,2.2-7.4,0.8-10.7C265.7,516.7,245.7,514.6,226.2,523.4z"/>
		<path class="st0" d="M485.8,523.4c11.1,5,13.2,12.2,9.6,20l0,0c-3.3-9.9-13-13.2-19.5-13.8c11.1,6.8,11.1,14.9,7.3,21.3l0,0
			c-11.1-17.5-34.1-21.3-41.3-12.2l0.1,0.1c-1.9-3.6-2.2-7.4-0.8-10.7C446.3,516.7,466.3,514.6,485.8,523.4z"/>
	</g>
	<g>
		<path class="st1" d="M373.8,219c3.2-3.4,10.5-6.5,13.1-7.2c6.5-1.7,14,0.4,15.5,6.8c1.4,6.4-3.7,12-10.6,13.1
			c-6.3,1-13.2-3.4-20.1-5.6c-7-2.2-15.1-2.5-19.7-6.9c-5-4.8-6-12.4-1.2-16.8c4.8-4.4,12.2-1.8,16.5,3.3
			C369,207.6,373.1,214.4,373.8,219z"/>
		<g>
			<g>
				<polygon class="st0" points="377.2,224.8 367.7,221.8 379,191 385.6,193.1 				"/>
				<polygon class="st0" points="381.8,177.8 390.8,180.7 385.6,193.1 379,191 				"/>
			</g>
			<g>
				<polygon class="st0" points="369.3,191.7 371.7,184.1 383.2,189 381.6,194.3 				"/>
				<polygon class="st0" points="395.5,191.6 393.1,199.2 381.6,194.3 383.2,189 				"/>
			</g>
		</g>
	</g>
	<g>
		<path class="st0" d="M547.2,424c6.7,31.7-13.5,62.8-45.2,69.5C495.3,461.8,515.6,430.7,547.2,424"/>
		<path class="st0" d="M531.3,504.8c13.4-6.8,23.1-17.9,28.3-30.8c-13.5-3.4-28.2-2.2-41.6,4.6c-6,3.1-11.3,7-15.8,11.6
			c2.4-5.9,3.8-12.4,4.2-19.1c0.8-15-4.1-28.9-12.7-39.8c-9.7,10-15.9,23.4-16.6,38.3c-0.8,15,4.1,28.9,12.6,39.8c0,0,0,0,0,0
			c0,0,0,0,0,0C503.2,512.8,517.9,511.6,531.3,504.8"/>
	</g>
	<g>
		<g>
			<path class="st0" d="M221.2,509c-15.1-17.6-41.5-19.6-59.1-4.6C177.2,522,203.6,524.1,221.2,509"/>
			<path class="st0" d="M221.2,509c-8.1-21.7,2.8-45.8,24.5-54C253.8,476.7,242.9,500.9,221.2,509"/>
		</g>
		<path class="st0" d="M152.4,467.9c25.6,7.4,49.4,21.6,68.8,41.1c-7.9-26.3-9-54-3.3-80.1C200.1,447.8,177.5,461.3,152.4,467.9"/>
		<path class="st0" d="M191.1,458.8c8.9-5.4,11.6-17,6.2-25.9c-5.4-8.9-17-11.6-25.9-6.2c-8.9,5.4-11.6,17-6.2,25.9
			C170.6,461.5,182.2,464.3,191.1,458.8"/>
	</g>
	<path class="st0" d="M438.3,72.5c5.6,0,9.6-11.6,9.6-18.2c0-3.8-1.4-6.8-4.2-6.8c-5.6,0-9.4,11.5-9.4,18.4
		C434.3,70.1,435.8,72.5,438.3,72.5z M443.3,81c-12.9,0-26.8-8.3-26.8-25.9c0-19.3,17.5-39.3,41.1-39.3c4.1,0,9.5,0.6,15,2l-2,7.2
		c-2.3-0.4-4.5-0.7-6.6-0.7c-11.8,0-22.1,6.5-27.3,20.7l0.3,0.2c3.4-3.3,7.2-4.5,11-4.5c9.6,0,18.5,7.8,18.5,19.4
		C466.4,70.6,457.1,81,443.3,81z M364.4,66.3c0.4-2.9,0.6-5.6,0.8-8.6c3.3,0.5,6.7,0.8,10.1,1.1l4.1-48.1c-3.3,0.6-7.3,0.9-10.6,1.3
		c0.4-2.5,0.8-5.2,0.9-7.8c6.4-0.3,20.8-2.3,28.7-3.8l1.3,0.2l-5.1,59.8c3.3,0.3,6.7,0.6,10,0.7c-0.3,3-0.7,5.9-0.7,8.9
		C390.8,67.7,376.8,66.7,364.4,66.3z M327.8,61.4c3.8,0,6.2-3.5,6.2-8.5c0-7.2-4.9-9.7-11.6-12.5c-1,3.3-1.3,5.9-1.3,8.4
		C321.1,54.9,322.5,61.4,327.8,61.4z M327.3,26.9c1.2-1.9,1.2-3.7,1.2-6.1c0-5.2-1.6-13.1-6-13.1c-2.5,0-4.1,2.3-4.1,6.3
		C318.3,20,321.8,24.2,327.3,26.9z M326.2,70.2c-1.4,0.1-2.3,0.2-4.2,0.2c-11.6,0-20.1-6.1-20.1-15.1s8.4-14.4,16.1-16.8
		c-8.2-3.8-16.3-10.1-16.3-19.1C301.7,8.6,313.3,0,326.3,0c11.8,0,18.8,7.2,18.8,14.5c0,7.5-7.3,13-12.9,14.8
		c10.8,4.2,21,7.6,21,18.6C353.2,60,340.3,69,326.2,70.2z M256.8,84c-0.7-2.9-1.6-5.7-2.5-8.5c3.2-0.8,6.5-1.8,9.7-2.8l-13.8-45
		c-2.9,1.7-5.8,3.1-8.6,4.7c-0.6-2.5-1.3-5.1-2.1-7.5c5.9-2.7,17.8-9.5,24.6-13.9l1.2-0.3l17.3,56.5c3.2-0.9,8-2.4,9.6-3
		c0.7,2.9,1.3,5,2.6,8.5C282.1,75.6,268.7,79.2,256.8,84z"/>
	<path class="st0" d="M416.5,644.8c-1.6,0-4,0.3-5.5,0.3l-1-5.6c9.3-1.4,24.2-5.4,31.1-7.5c0.2,0.9,0.9,3.5,1.5,5
		c-2.2,1.5-3.3,2.6-5.7,4.2l30.3,43.6l0.4-0.2l-1.9-45.3l-5.2-6.5c-1.6,0-4,0.3-5.6,0.3c-0.2-1.7-0.6-3.7-1-5.1
		c10.3-3.7,19.6-7.7,29.7-12.7c0.3,1.7,0.9,3.8,1.5,5.3c-2.1,1.5-3.3,2.5-5.6,4.2l29.5,40.7l0.3-0.1l-3.7-53.6
		c-2.7-0.1-6.1,1-7.9,1.7c-0.3-1.4-0.6-3.5-1-5c6.4-3.3,18-10.7,19.5-11.6c0.2,1.2,0.9,3.3,1.5,4.9c-1.8,1.5-3,2.6-4.4,4.9l3.7,65.8
		c-6,3.5-12,6.4-18.3,8.5l-24.6-31.4l1.2,42.1c-5.6,2.6-13.5,4.5-19.8,6.7L416.5,644.8z M400.4,701.7c-6.7,7.2-16.3,10.3-26.4,10.3
		c-20.7,0-33.9-13.6-33.9-35.1c0-25.2,19.4-35.2,47.3-35.2c4.1,0,8.5,0.2,11.8,0.9V663l-5.3,0.5c-2.3-10.5-8-14.6-15.8-14.6
		c-12.3,0-16.6,9.7-16.6,23.2c0,15,5.1,32.1,16.5,31.9c6.8-0.1,10-6,10-17.7c0-1.6-0.1-3.3-0.2-5.2c-2.8-0.4-6.7-0.8-8.5-1.1
		c0.2-1.9,0.3-4.3,0.3-6.2l26.3-2.2l3,36.7c-1.8-0.1-3.4,0.1-5.1,0.5L400.4,701.7z M293.3,705.7c-19.6,0-35.8-12.3-35.8-33.9
		c0-18.8,12.3-35.4,34.4-35.4c10.3,0,25.3,3.8,33.7,7.8l-5.9,19.7l-5.1-1.1c0.9-10.3-5-19-15.1-19c-13.8,0-20.9,17.7-20.9,36.3
		c0,10.7,4.1,17.5,11.4,17.5c7,0,11-6.2,13.8-19.5c-2.6-1.2-6.3-2.7-7.9-3.4c0.7-1.8,1.5-4,2.1-5.9l25.8,5.1l-7.2,36.1
		c-1.6-0.6-3.4-0.9-5.1-1l-1.2-7.6C304.9,704.5,299.4,705.7,293.3,705.7z M219.2,680.8c-12.8,0-32.7-7.9-38.6-18.6
		c3.4-5.8,6.5-11.7,9.3-17.8c1.8,0.9,3.6,1.7,5.4,2.5c-1.1,3.2-1.6,6-1.6,8.3c0,8.9,7.5,16.8,15,16.8c4.8,0,6.8-3.1,6.8-7.1
		c0-10.1-14.5-25.1-14.5-36.6c0-9.3,7.6-16,18.6-16c11.2,0,28.7,7.2,34.4,18.3c-3.2,4.2-6.3,8.5-9.1,12.9c-1.5-0.9-3.1-1.6-4.8-2.2
		c0.9-2.8,1.4-5.2,1.4-7.2c0-7.1-6.3-12.7-12.4-12.7c-4.6,0-6.7,3.2-6.7,6.8c0,8.8,15.9,26.6,15.9,38.2
		C238.3,675.4,229.8,680.8,219.2,680.8z"/>
</g>
</svg>
